<svg width="520" height="512" viewBox="0 0 520 512" fill="none" xmlns="http://www.w3.org/2000/svg">
<g filter="url(#filter0_d)">
<path d="M88.446 317.403H17.082C9.649 317.403 4 312.348 4 303.724C4 301.346 43.246 157.429 43.246 157.429C46.814 149.995 53.356 147.319 59.6 147.319C66.439 147.319 83.59 151.933 83.59 160.855C83.59 162.342 83.663 165.458 82.77 167.241L53.655 281.423H88.446V250.202C88.446 241.58 98.258 238.011 107.773 238.011C117.587 238.011 127.101 241.579 127.101 250.202V281.423H141.076C149.105 281.423 153.268 290.344 153.268 299.561C153.268 308.481 147.319 317.403 141.076 317.403H127.101V352.49C127.101 360.519 117.586 364.681 107.773 364.681C98.258 364.681 88.446 360.518 88.446 352.49V317.403Z" fill="#2E5EAA"/>
<path d="M394.515 199.571C400.961 175.825 405.977 157.429 405.977 157.429C409.545 149.995 416.087 147.319 422.331 147.319C429.17 147.319 446.321 151.933 446.321 160.855C446.321 162.342 446.394 165.458 445.501 167.241L416.387 281.423H451.178V250.202C451.178 241.58 460.99 238.011 470.505 238.011C480.319 238.011 489.833 241.579 489.833 250.202V281.423H503.808C511.837 281.423 516 290.344 516 299.561C516 308.481 510.051 317.403 503.808 317.403H489.833V352.49C489.833 360.519 480.318 364.681 470.505 364.681C460.99 364.681 451.178 360.518 451.178 352.49V317.403H379.813C372.38 317.403 366.731 312.348 366.731 303.724C366.731 302.533 376.571 265.855 386.397 229.527L394.515 199.571Z" fill="#2E5EAA"/>
<path d="M260.009 351.554C308.876 351.554 348.49 311.94 348.49 263.073C348.49 214.206 308.876 174.592 260.009 174.592C211.142 174.592 171.528 214.206 171.528 263.073C171.528 311.94 211.142 351.554 260.009 351.554Z" fill="#7B9BCF"/>
<path d="M271.088 263.076L301.865 232.299C304.925 229.239 304.925 224.276 301.865 221.217C298.803 218.157 293.842 218.157 290.782 221.217L260.005 251.994L229.228 221.217C226.166 218.157 221.205 218.157 218.145 221.217C215.085 224.277 215.085 229.24 218.145 232.299L248.922 263.076L218.145 293.853C215.085 296.913 215.085 301.876 218.145 304.935C219.676 306.465 221.682 307.231 223.687 307.231C225.692 307.231 227.698 306.466 229.229 304.935L260.006 274.158L290.783 304.935C292.314 306.465 294.32 307.231 296.325 307.231C298.33 307.231 300.336 306.466 301.867 304.935C304.927 301.875 304.927 296.912 301.867 293.853L271.088 263.076Z" fill="white"/>
</g>
<defs>
<filter id="filter0_d" x="0" y="0" width="520" height="520" filterUnits="userSpaceOnUse" color-interpolation-filters="sRGB">
<feFlood flood-opacity="0" result="BackgroundImageFix"/>
<feColorMatrix in="SourceAlpha" type="matrix" values="0 0 0 0 0 0 0 0 0 0 0 0 0 0 0 0 0 0 127 0"/>
<feOffset dy="4"/>
<feGaussianBlur stdDeviation="2"/>
<feColorMatrix type="matrix" values="0 0 0 0 0 0 0 0 0 0 0 0 0 0 0 0 0 0 0.25 0"/>
<feBlend mode="normal" in2="BackgroundImageFix" result="effect1_dropShadow"/>
<feBlend mode="normal" in="SourceGraphic" in2="effect1_dropShadow" result="shape"/>
</filter>
</defs>
</svg>
