<svg width="30" height="30" viewBox="0 0 30 30" fill="none" xmlns="http://www.w3.org/2000/svg">
<path d="M12.2188 5.625C12.2188 5.13601 12.413 4.66704 12.7588 4.32127C13.1045 3.9755 13.5735 3.78125 14.0625 3.78125H15.9375C16.4265 3.78125 16.8955 3.9755 17.2412 4.32127C17.587 4.66704 17.7812 5.13601 17.7812 5.625V11.25C17.7812 11.739 17.587 12.208 17.2412 12.5537C16.8955 12.8995 16.4265 13.0938 15.9375 13.0938H14.0625C13.5735 13.0938 13.1045 12.8995 12.7588 12.5537C12.413 12.208 12.2188 11.739 12.2188 11.25V5.625ZM4.71875 5.625C4.71875 5.13601 4.913 4.66704 5.25877 4.32127C5.60454 3.9755 6.07351 3.78125 6.5625 3.78125H8.4375C8.92649 3.78125 9.39546 3.9755 9.74123 4.32127C10.087 4.66704 10.2812 5.13601 10.2812 5.625V18.75C10.2812 19.239 10.087 19.708 9.74123 20.0537C9.39546 20.3995 8.92649 20.5938 8.4375 20.5938H6.5625C6.07351 20.5938 5.60454 20.3995 5.25877 20.0537C4.913 19.708 4.71875 19.239 4.71875 18.75V5.625ZM19.7188 5.625C19.7188 5.13601 19.913 4.66704 20.2588 4.32127C20.6045 3.9755 21.0735 3.78125 21.5625 3.78125H23.4375C23.9265 3.78125 24.3955 3.9755 24.7412 4.32127C25.087 4.66704 25.2812 5.13601 25.2812 5.625V24.375C25.2812 24.864 25.087 25.333 24.7412 25.6787C24.3955 26.0245 23.9265 26.2188 23.4375 26.2188H21.5625C21.0735 26.2188 20.6045 26.0245 20.2588 25.6787C19.913 25.333 19.7188 24.864 19.7188 24.375V5.625Z" fill="#2E5EAA" stroke="white" stroke-width="0.0625"/>
<path fill-rule="evenodd" clip-rule="evenodd" d="M25.3125 1.875H4.6875C4.19022 1.875 3.71331 2.07254 3.36167 2.42417C3.01004 2.77581 2.8125 3.25272 2.8125 3.75V26.25C2.8125 26.7473 3.01004 27.2242 3.36167 27.5758C3.71331 27.9275 4.19022 28.125 4.6875 28.125H25.3125C25.8098 28.125 26.2867 27.9275 26.6383 27.5758C26.99 27.2242 27.1875 26.7473 27.1875 26.25V3.75C27.1875 3.25272 26.99 2.77581 26.6383 2.42417C26.2867 2.07254 25.8098 1.875 25.3125 1.875ZM4.6875 0C3.69294 0 2.73911 0.395088 2.03585 1.09835C1.33259 1.80161 0.9375 2.75544 0.9375 3.75V26.25C0.9375 27.2446 1.33259 28.1984 2.03585 28.9016C2.73911 29.6049 3.69294 30 4.6875 30H25.3125C26.3071 30 27.2609 29.6049 27.9641 28.9016C28.6674 28.1984 29.0625 27.2446 29.0625 26.25V3.75C29.0625 2.75544 28.6674 1.80161 27.9641 1.09835C27.2609 0.395088 26.3071 0 25.3125 0L4.6875 0Z" fill="#2E5EAA"/>
</svg>
