<svg width="1" height="1" viewBox="0 0 1 1" fill="none" xmlns="http://www.w3.org/2000/svg">
<path fill-rule="evenodd" clip-rule="evenodd" d="M0.09375 0.09375C0.09375 0.085462 0.0970424 0.0775134 0.102903 0.0716529C0.108763 0.0657924 0.116712 0.0625 0.125 0.0625H0.875C0.883288 0.0625 0.891237 0.0657924 0.897097 0.0716529C0.902958 0.0775134 0.90625 0.085462 0.90625 0.09375V0.21875C0.906249 0.226457 0.903399 0.233891 0.89825 0.239625L0.625 0.54325V0.84375C0.624995 0.850306 0.622928 0.856695 0.619092 0.862011C0.615256 0.867328 0.609845 0.871303 0.603625 0.873375L0.416125 0.935875C0.41143 0.937439 0.40643 0.937865 0.401538 0.937119C0.396645 0.936373 0.392 0.934475 0.387984 0.931582C0.383969 0.92869 0.380698 0.924885 0.37844 0.92048C0.376183 0.916076 0.375004 0.911199 0.375 0.90625V0.54325L0.10175 0.239625C0.0966005 0.233891 0.0937514 0.226457 0.09375 0.21875V0.09375Z" fill="white"/>
</svg>
